<svg viewBox="0 0 100 100" xmlns="http://www.w3.org/2000/svg"><g fill="#313048"><path d="M44.23 51.623v-6.146a5.153 5.153 0 015.146-5.147 5.153 5.153 0 015.147 5.147v6.146H44.23zm5.146-18.783c-6.603 0-12.032 5.095-12.581 11.56-.025.178-.055.356-.055.54v17.228a3.745 3.745 0 007.49 0v-3.055h10.293v3.055a3.744 3.744 0 107.49 0V44.94c0-.185-.029-.363-.055-.542-.55-6.464-5.977-11.56-12.582-11.56z"/><path d="M49.377 86.263c-20.34 0-36.887-16.546-36.887-36.886 0-20.34 16.547-36.887 36.887-36.887s36.886 16.547 36.886 36.887-16.546 36.886-36.886 36.886m0-81.263C24.907 5 5 24.907 5 49.377c0 24.469 19.907 44.376 44.377 44.376 24.469 0 44.376-19.907 44.376-44.376C93.753 24.907 73.846 5 49.377 5"/></g></svg>